<?xml version="1.0" encoding="UTF-8"?>
<svg id="_レイヤー_2" data-name="レイヤー 2" xmlns="http://www.w3.org/2000/svg" viewBox="0 0 403.9976807 90.2236328">
  <defs>
    <style>
      .cls-1 {
        fill: #fff;
      }
    </style>
  </defs>
  <g id="_レイヤー_1-2" data-name="レイヤー 1">
    <g>
      <path class="cls-1" d="m0,74.5527344h1.6171875l14.8183594,15.4423828h-1.5732422L0,74.5527344Z"/>
      <path class="cls-1" d="m16.8085938,86.8574219l-.7558594-.7294922c.6386719-.796875,1.3447266-1.9111328,2.1181641-3.3447266.7734375-1.4316406,1.3095703-2.6611328,1.6083984-3.6865234h-2.8652344v-1.0634766h2.9794922v-3.6914062h1.4150391v3.6914062h2.3115234v1.0634766h-2.3115234v1.2304688c.5390625.7089844,1.3652344,1.6201172,2.4785156,2.7333984l-.7382812,1.0107422c-.5625-.5625-1.1425781-1.21875-1.7402344-1.96875v8.0244141h-1.3798828v-8.1210938c-.9667969,2.0507812-2.0068359,3.6679688-3.1201172,4.8515625Zm6.4775391.5361328l-.7822266-.7119141c.8378906-.8378906,1.7490234-2.0488281,2.7333984-3.6347656.984375-1.5839844,1.6757812-2.9013672,2.0742188-3.9501953h-2.7509766v-1.0634766h2.9882812v-3.6914062h1.4326172v3.6914062h3.9287109v1.0634766h-3.65625c.9375,2.4902344,2.4638672,4.9306641,4.5791016,7.3212891l-.9931641.9228516c-1.7050781-2.0097656-3.0087891-4.0546875-3.9111328-6.1347656v8.7978516h-1.3447266v-8.8505859c-.4101562.9316406-.8115234,1.7021484-1.2041016,2.3115234s-.8730469,1.2861328-1.4414062,2.0302734-1.1191406,1.3769531-1.6523438,1.8984375Z"/>
      <path class="cls-1" d="m35.0327148,89.7841797l-.3515625-.9580078c2.8652344-.6269531,5.1210938-1.5498047,6.7675781-2.7685547h-6.4511719v-1.0546875h7.4882812v-1.4238281h-6.1347656v-.9755859h6.1347656v-1.5117188h-6.609375v-1.0458984h3.7265625l-.8964844-1.8720703h-3.4716797v-1.0458984h2.6279297l-1.0634766-2.2412109,1.2128906-.3251953,1.1601562,2.5664062h1.5732422v-2.8652344h1.2832031v2.8652344h2.2412109v-2.8652344h1.3007812v2.8652344h1.6699219l1.1777344-2.6015625,1.2480469.3251953-1.1865234,2.2763672h2.8740234v1.0458984h-3.65625l-1.0019531,1.8720703h4.0166016v1.0458984h-6.8642578v1.5117188h6.3896484v.9755859h-6.3896484v1.4238281h7.6201172v1.0546875h-6.5390625c.8203125.5214844,1.8911133,1.03125,3.2124023,1.5292969s2.5532227.8496094,3.6958008,1.0546875l-.5712891,1.1425781c-2.953125-.6503906-5.4375-1.7285156-7.453125-3.234375v3.6738281h-1.2919922v-3.4980469c-.8378906.6503906-1.9658203,1.2675781-3.3837891,1.8505859-1.4179688.5820312-2.7861328.9853516-4.1044922,1.2080078Zm5.0712891-11.6103516l.8876953,1.8720703h4.3681641l.8964844-1.8720703h-6.1523438Z"/>
      <path class="cls-1" d="m61.6025391,89.3974609l-.3427734-1.1865234c1.8864746-.1699219,3.4992676-.7177734,4.8383789-1.6435547,1.3387451-.9257812,2.0083008-2.3085938,2.0083008-4.1484375,0-1.640625-.5405273-2.9091797-1.621582-3.8056641s-2.5883789-1.3710938-4.5219727-1.4238281c-.0646973,3.1523438-.6300049,5.7832031-1.6962891,7.8925781-1.0666504,2.109375-2.4025879,3.1640625-4.0078125,3.1640625-.9963379,0-1.7797852-.4228516-2.3510742-1.2695312s-.8569336-1.8798828-.8569336-3.0986328c0-2.0097656.8669434-3.8154297,2.6015625-5.4189453,1.7342529-1.6015625,3.7880859-2.4033203,6.1611328-2.4033203,2.2324219,0,4.0721436.5576172,5.5195312,1.6748047,1.4470215,1.1152344,2.1708984,2.640625,2.1708984,4.5742188,0,2.203125-.7294922,3.8876953-2.1884766,5.0537109s-3.3634033,1.8457031-5.7128906,2.0390625Zm-1.0195312-12.09375c-1.6994629.2578125-3.1612549,1.0273438-4.3857422,2.3076172-1.2248535,1.2802734-1.8369141,2.7255859-1.8369141,4.3369141,0,.8554688.1785889,1.5810547.5361328,2.1748047.3571777.5957031.8553467.8925781,1.4941406.8925781,1.095459,0,2.0506592-1.0234375,2.8652344-3.0722656.814209-2.046875,1.2568359-4.2607422,1.3271484-6.6396484Z"/>
      <path class="cls-1" d="m83.7019043,76.8291016c-.2167969,2.6660156-.7485352,4.8486328-1.5952148,6.5478516s-2.2485352,3.1230469-4.2055664,4.2714844-4.3740234,1.8691406-7.2509766,2.1621094l-.3603516-1.3271484c3.0644531-.2929688,5.7407227-1.2480469,8.0288086-2.8652344s3.5581055-4.4003906,3.8100586-8.3496094h-12.0410156v-1.3007812h12.7705078c-.1171875-.2402344-.1787109-.5126953-.1845703-.8173828,0-.515625.1889648-.9521484.5668945-1.3095703s.8481445-.5419922,1.4106445-.5537109c.5273438,0,.9770508.1787109,1.3491211.5361328s.5639648.8085938.5756836,1.3535156c0,.5214844-.1875.9609375-.5625,1.3183594s-.8291016.5419922-1.3623047.5537109c-.3515625,0-.6679688-.0732422-.9492188-.2197266Zm.9140625-.4042969c.3398438,0,.637207-.1201172.8920898-.3603516s.3823242-.5332031.3823242-.8789062c0-.3515625-.1245117-.6533203-.3735352-.9052734s-.5493164-.3779297-.9008789-.3779297c-.3398438,0-.6357422.125-.8876953.3730469-.2519531.25-.3779297.5439453-.3779297.8837891s.1245117.6357422.3735352.8876953.5463867.3779297.8920898.3779297Z"/>
      <path class="cls-1" d="m102.3625488,89.2216797h-14.0273438v-12.796875h14.0273438v12.796875Zm-1.4941406-1.2304688v-10.3974609h-11.0742188v10.3974609h11.0742188Z"/>
      <path class="cls-1" d="m109.8956299,76.3984375c0,.5273438-.0263672,1.1279297-.0791016,1.8017578h3.375c.8319092,0,1.4837646.2978516,1.9555664.8916016.4715576.5957031.7075195,1.3730469.7075195,2.3339844,0,2.3613281-.2491455,4.3183594-.7470703,5.8710938-.4981689,1.5527344-1.3710938,2.3291016-2.6191406,2.3291016-.7266846,0-1.7462158-.3457031-3.0585938-1.0371094l.4306641-1.1162109c.3164062.1523438.7572021.3203125,1.3227539.5058594.5653076.1835938.9536133.2763672,1.1645508.2763672.4803467.0058594.8626709-.2470703,1.1469727-.7607422.2840576-.5117188.5185547-1.2324219.703125-2.1621094.1845703-.9277344.2768555-2.03125.2768555-3.3085938,0-1.1660156-.1568604-1.9023438-.4702148-2.2109375-.3135986-.3066406-.7281494-.4609375-1.2436523-.4609375h-3.0585938c-.2052002,1.9921875-.6783447,3.9023438-1.4194336,5.7304688-.741333,1.828125-1.6773682,3.375-2.8081055,4.640625l-.9931641-.7207031c.7615967-.9023438,1.5189209-2.1582031,2.2719727-3.765625.7528076-1.609375,1.2612305-3.5087891,1.5249023-5.7001953h-3.4365234v-1.1777344h3.5771484c.0408936-.4101562.0615234-1.5908203.0615234-3.5419922h1.4150391v1.5820312Zm10.7841797,7.2861328l-1.3710938.3603516c-.7969971-2.9355469-1.9599609-5.2207031-3.4892578-6.8554688l1.0283203-.703125c.8026123.8203125,1.5732422,1.9296875,2.3115234,3.3261719.7382812,1.3984375,1.2449951,2.6884766,1.5205078,3.8720703Zm-1.5996094-7.1982422l-1.0107422.4482422c-.421875-.9433594-.8468018-1.7636719-1.2744141-2.4609375l.9492188-.4394531c.5097656.7910156.9549561,1.6083984,1.3359375,2.4521484Zm2.5224609-.3603516l-1.0107422.4130859c-.3927002-.9082031-.8116455-1.7197266-1.2568359-2.4345703l.9316406-.4482422c.4042969.6269531.8494873,1.4501953,1.3359375,2.4697266Z"/>
      <path class="cls-1" d="m124.4194336,90.1269531v-7.6904297c-.5625.6972656-1.0576172,1.2539062-1.4853516,1.6699219l-.8085938-.7470703c.6035156-.6210938,1.2246094-1.3945312,1.8632812-2.3203125s1.1396484-1.78125,1.5029297-2.5664062l1.1337891.421875c-.3574219.8320312-.8378906,1.6757812-1.4414062,2.53125h.5009766v8.7011719h-1.265625Zm-1.3535156-11.1445312l-.7734375-.7470703c1.5878906-1.3652344,2.6953125-2.6689453,3.3222656-3.9111328l1.1953125.421875c-.890625,1.6054688-2.1386719,3.0175781-3.7441406,4.2363281Zm4.1660156,1.2744141l-.1669922-.9228516c.2578125-.0117188.5449219-.0292969.8613281-.0527344.2050781-.4863281.4980469-1.3242188.8789062-2.5136719h-1.8457031v-.9580078h2.8212891v-1.5205078h1.2128906v1.5205078h2.6279297v.9580078h-3.65625c-.1464844.4628906-.46875,1.2714844-.9667969,2.4257812l2.6630859-.2460938-.0087891-.0175781-.6240234-1.3007812.9404297-.3515625c.3164062.6210938.7324219,1.4794922,1.2480469,2.5751953l-1.0107422.3427734c-.0585938-.1464844-.1230469-.3017578-.1933594-.4658203-.4394531.0644531-2.0332031.2402344-4.78125.5273438Zm4.3330078,6.4775391h-2.9707031v3.2519531h-1.1425781v-8.6308594h5.3085938v7.4355469c0,.3222656-.1201172.5830078-.3603516.7822266s-.5625.2988281-.9667969.2988281h-1.1513672l-.1318359-.9580078h.8789062c.3574219,0,.5361328-.1699219.5361328-.5097656v-1.6699219Zm-2.9707031-3.1201172h2.9707031v-1.4150391h-2.9707031v1.4150391Zm0,2.3115234h2.9707031v-1.4853516h-2.9707031v1.4853516Zm7.9541016.9492188c-.6914062,1.1894531-1.5820312,2.2792969-2.671875,3.2695312l-.7470703-.7822266c1.1835938-1.1601562,2.1064453-2.4345703,2.7685547-3.8232422-.7617188-1.7285156-1.2773438-3.3837891-1.546875-4.9658203-.1757812.3222656-.3515625.6240234-.5273438.9052734l-.8085938-.5449219c.3515625-.5800781.7661133-1.6083984,1.2436523-3.0849609s.7602539-2.6777344.8481445-3.6035156l1.3007812.1318359c-.2519531,1.265625-.4892578,2.2558594-.7119141,2.9707031h3.9287109v.9931641h-.9404297c-.1289062,2.9003906-.6210938,5.3144531-1.4765625,7.2421875.7324219,1.4003906,1.5439453,2.53125,2.4345703,3.3925781l-.8613281.9931641c-.8320312-.8613281-1.5761719-1.8925781-2.2324219-3.09375Zm-.0615234-2.8212891c.5917969-1.78125.8964844-3.6855469.9140625-5.7128906h-2.0478516c-.0351562.1054688-.09375.2636719-.1757812.4746094.2050781,1.8574219.6416016,3.6035156,1.3095703,5.2382812Z"/>
      <path class="cls-1" d="m143.7313232,76.6357422v3.6738281c0,2.0742188-.2139893,3.9980469-.6416016,5.7705078-.4278564,1.7724609-.9376221,3.0566406-1.5292969,3.8535156l-.9316406-.5888672c1.1717529-2.203125,1.7578125-5.0859375,1.7578125-8.6484375v-5.1064453h6.9257812v-1.5029297h1.4677734v1.5029297h6.7412109v1.0458984h-13.7900391Zm.0351562,13.0341797v-1.0458984h9.0703125v1.0458984h-9.0703125Zm.6416016-2.1621094l-.2021484-1.1425781,1.5029297-.1669922v-7.7958984c3.5975342-.1289062,6.7440186-.4775391,9.4394531-1.0458984l.5888672,1.0107422c-.6094971.1582031-1.7402344.3369141-3.3925781.5361328v.5009766c0,.7910156.0263672,1.4970703.0791016,2.1181641h4.5966797v1.0283203h-4.4824219c.28125,1.9335938.805542,3.4160156,1.5732422,4.4472656.7674561,1.03125,1.3826904,1.546875,1.8457031,1.546875.3221436,0,.5067139-.2285156.5537109-.6855469l.1318359-.9492188c.0351562-.3339844.0584717-.6474609.0703125-.9404297l1.0458984.140625c-.0469971,1.7226562-.1889648,2.8027344-.4262695,3.2392578-.2373047.4355469-.6459961.6542969-1.2260742.6542969-.8789062,0-1.8428955-.7050781-2.8916016-2.1132812-1.0489502-1.4091797-1.7286377-3.1894531-2.0390625-5.3398438h-4.1220703v3.4716797c1.6287842-.2226562,2.9324951-.4248047,3.9111328-.6064453l.0351562,1.0634766c-1.5411377.328125-3.7384033.6708984-6.5917969,1.0283203Zm2.6455078-8.2089844v2.2236328h3.9902344c-.0703125-.7265625-.1054688-1.546875-.1054688-2.4609375-1.5938721.1582031-2.8300781.2373047-3.7089844.2373047h-.1757812Z"/>
      <path class="cls-1" d="m165.9882812,89.9863281h-2.0566406l-.1494141-1.1601562h1.6171875c.4160156,0,.6240234-.1904297.6240234-.5712891v-2.7158203h-4.4208984c-.234375,1.734375-.8349609,3.2783203-1.8017578,4.6318359l-.9228516-.5361328c.4979248-.7382812.8920898-1.6416016,1.1821289-2.7109375s.4350586-2.1787109.4350586-3.3271484v-4.6142578c-.3339844.4160156-.6386719.7675781-.9140625,1.0546875l-.7558594-.7382812c.609375-.609375,1.227417-1.4248047,1.8544922-2.4472656.6269531-1.0224609,1.0751953-1.9501953,1.3447266-2.7822266l1.265625.1669922c-.09375.3046875-.2460938.6708984-.4570312,1.0986328h3.5595703l.2197266.2373047c-.3282471.8730469-.8056641,1.8339844-1.4326172,2.8828125h2.1269531v10.3007812c0,.3574219-.1362305.6513672-.4086914.8828125s-.5756836.3476562-.909668.3476562Zm-5.0712891-11.53125h3.09375c.5155029-.9609375.8554688-1.6962891,1.0195312-2.2060547h-2.6806641c-.4394531.7851562-.9171143,1.5205078-1.4326172,2.2060547Zm.8085938,3.8759766v1.3359375c0,.2929688-.0087891.5888672-.0263672.8876953h1.6435547v-2.2236328h-1.6171875Zm1.6171875-2.9179688h-1.6171875v2.0126953h1.6171875v-2.0126953Zm2.6806641,2.0126953v-2.0126953h-1.6347656v2.0126953h1.6347656Zm0,3.1289062v-2.2236328h-1.6347656v2.2236328h1.6347656Zm2.4785156-4.5l-.6240234-.7910156c1.40625-.7910156,2.15625-1.9921875,2.25-3.6035156h-2.0302734v-1.0283203h7.453125v.6240234c0,1.1835938-.0498047,2.0507812-.1494141,2.6015625-.0997314.5507812-.2651367.9609375-.496582,1.2304688-.2315674.2695312-.4864502.4394531-.7646484.5097656-.2783203.0703125-.9008789.1054688-1.8676758.1054688h-.4130859l-.1494141-1.1162109h1.3447266c.2694092,0,.5330811-.1181641.7910156-.3564453.2578125-.2363281.3867188-1.09375.3867188-2.5703125h-2.7597656c-.0585938.9316406-.3502197,1.7929688-.8745117,2.5839844-.5244141.7910156-1.2231445,1.3945312-2.0961914,1.8105469Zm-.3339844,6.5917969v-1.0458984h3.3662109v-2.4082031h-1.8632812c-.2460938.6621094-.4833984,1.1513672-.7119141,1.4677734l-1.0283203-.3515625c.5625-1.0664062.9492188-2.296875,1.1601562-3.6914062l1.2128906.1494141c-.0527344.421875-.1524658.8876953-.2988281,1.3974609h1.5292969v-1.546875h1.3359375v1.546875h2.8476562v1.0283203h-2.8476562v2.4082031h3.0849609v1.0458984h-3.0849609v3.4101562h-1.3359375v-3.4101562h-3.3662109Z"/>
      <path class="cls-1" d="m177.2351074,78.1035156v-1.0107422h5.9677734v1.0107422h-5.9677734Zm1.6523438,11.3291016v.6591797h-1.2304688v-5.6689453h5.0185547v5.0097656h-3.7880859Zm-1.0283203-13.7900391v-1.0019531h4.8867188v1.0019531h-4.8867188Zm.0175781,4.8691406v-1.0107422h4.7724609v1.0107422h-4.7724609Zm0,2.4082031v-1.0283203h4.7724609v1.0283203h-4.7724609Zm3.4892578,2.4960938h-2.4609375v3.0234375h2.4609375v-3.0234375Zm2.2939453,4.7197266l-.6416016-.8701172c1.9920654-1.0898438,2.9882812-2.90625,2.9882812-5.4492188l-.0175781-.6767578v-.3339844h-1.8896484v-5.6689453h1.8720703l-1.0634766-2.7597656,1.1777344-.3251953c.5742188,1.3066406.9901123,2.3349609,1.2480469,3.0849609h2.0830078l1.2568359-3.0849609,1.3974609.3251953-1.3798828,2.7597656h1.9863281v5.6689453h-2.4960938v5.34375c0,.1757812.0336914.3134766.1010742.4130859.0672607.0996094.1595459.1660156.2768555.1972656.1171875.0332031.4072266.0488281.8701172.0488281.2636719,0,.4526367-.0136719.5668945-.0390625.1142578-.0273438.2285156-.0957031.3427734-.2070312s.1875-.4101562.2197266-.8964844c.0321045-.4863281.0483398-1.0048828.0483398-1.5556641l1.0986328.1142578v2.2412109c0,.4101562-.1524658.75-.4570312,1.0195312-.3046875.2695312-.8964844.4042969-1.7753906.4042969-.4804688,0-.9418945-.0205078-1.3842773-.0615234-.4425049-.0410156-.7573242-.1816406-.9448242-.421875-.1876221-.2402344-.28125-.5742188-.28125-1.0019531v-5.5986328h-1.546875v.8613281c0,1.4882812-.3150635,2.8007812-.9448242,3.9375-.6298828,1.1367188-1.5336914,1.9804688-2.7114258,2.53125Zm7.734375-12.0146484h-5.9853516v3.65625h5.9853516v-3.65625Z"/>
      <path class="cls-1" d="m200.7060547,75.7919922l-.2373047,9.6416016h-1.3710938l-.2548828-9.6416016h1.8632812Zm-.0351562,13.2451172h-1.7929688v-1.8544922h1.7929688v1.8544922Z"/>
      <path class="cls-1" d="m216.3076172,85.6445312c0,1.1191406-.3458252,1.9951172-1.0371094,2.6279297-.6914062.6328125-1.640625.9492188-2.8476562.9492188-.7089844,0-1.4708252-.0849609-2.2851562-.2548828v-1.5205078h.0878906c.7440186.2578125,1.3974609.3867188,1.9599609.3867188.8203125,0,1.4399414-.1630859,1.8588867-.4873047.4188232-.3261719.628418-1.1152344.628418-2.3691406v-7.9013672h-2.8916016v-1.2832031h4.5263672v9.8525391Z"/>
      <path class="cls-1" d="m227.6296387,89.0371094l-1.3623047-3.7792969h-5.7480469l-1.3623047,3.7792969h-1.6611328l4.9042969-13.2451172h2.0830078l4.8955078,13.2451172h-1.7490234Zm-1.8544922-5.1416016l-2.3818359-6.5302734-2.3730469,6.5302734h4.7548828Z"/>
      <path class="cls-1" d="m235.3259277,89.2744141c-1.4884033,0-3.0498047-.3691406-4.6845703-1.1074219v-1.9951172h.1142578c1.3476562,1.1484375,2.8769531,1.7226562,4.5878906,1.7226562,1.0546875,0,1.8822021-.2148438,2.4829102-.6464844.6005859-.4296875.9008789-1.0029297.9008789-1.7177734,0-.5507812-.1274414-.9824219-.3823242-1.2958984s-.6987305-.5585938-1.331543-.734375l-2.953125-.5976562c-1.0957031-.2285156-1.9262695-.6425781-2.4916992-1.2441406-.5655518-.5996094-.8481445-1.3808594-.8481445-2.3417969,0-1.0898438.4394531-1.9892578,1.3183594-2.6982422s2.0244141-1.0634766,3.4365234-1.0634766c1.4765625,0,2.953125.3251953,4.4296875.9755859v1.9248047h-.1230469c-1.21875-1.0136719-2.6542969-1.5205078-4.3066406-1.5205078-.9140625,0-1.651001.2021484-2.2104492.6064453-.5595703.4042969-.8393555.9345703-.8393555,1.5908203,0,1.0957031.6385498,1.8017578,1.9160156,2.1181641.7382812.1347656,1.5600586.3027344,2.465332.5058594.9052734.2011719,1.5526123.4121094,1.9423828.6328125.3896484.21875.7060547.4697266.9492188.7509766.243042.28125.4248047.6005859.5449219.9580078.1199951.3574219.1801758.7529297.1801758,1.1865234,0,1.1484375-.4658203,2.1005859-1.3974609,2.8564453s-2.1651611,1.1337891-3.7001953,1.1337891Z"/>
      <path class="cls-1" d="m249.5472412,90.1708984v-3.0849609h-3.2519531v-1.0283203h3.2519531v-1.4501953h-2.53125v-6.3896484h2.53125v-1.5029297h-2.9794922v-1.0458984h2.9794922v-1.5117188h1.3535156v1.5117188h3.0322266v1.0458984h-3.0322266v1.5029297h2.5751953v6.3896484h-2.5751953v1.4501953h3.0146484v1.0283203h-3.0146484v3.0849609h-1.3535156Zm-1.2480469-9.3251953h3.9111328v-1.6523438h-3.9111328v1.6523438Zm3.9111328.9316406h-3.9111328v1.8544922h3.9111328v-1.8544922Zm4.2802734-4.7197266c-.5800781,1.171875-1.1573486,2.1269531-1.7314453,2.8652344l-.9140625-.6064453c.4334717-.5332031.9008789-1.3681641,1.4018555-2.5048828s.8275146-2.0947266.9799805-2.8740234l1.3974609.2197266c-.0938721.4628906-.3048096,1.0693359-.6328125,1.8193359h5.9765625v1.0810547h-6.4775391Zm3.8671875,3.1992188h-4.4736328v-1.125h6.0380859l.5097656.6503906c-2.9591064,3.09375-4.7696533,5.0820312-5.4316406,5.9638672-.6622314.8818359-.9931641,1.4863281-.9931641,1.8144531v.0615234c0,.1992188.0716553.4072266.215332.6240234.1434326.2167969.4306641.3515625.8613281.4042969s.96521.0791016,1.6040039.0791016c.6268311,0,1.2054443-.0175781,1.7358398-.0527344.5301514-.0351562.8670654-.0888672,1.0107422-.1630859.1434326-.0722656.2576904-.1767578.3427734-.3115234.0848389-.1347656.1419678-.3037109.1713867-.5048828.0291748-.203125.0615234-.8457031.0966797-1.9296875l1.125.140625v2.4082031c0,.2050781-.038208.390625-.1142578.5585938-.0762939.1660156-.1845703.3095703-.3251953.4296875s-.2930908.2167969-.4570312.2910156c-.1641846.0722656-.3164062.1191406-.4570312.140625-.140625.0195312-.6943359.0419922-1.6611328.0654297s-1.491333.0351562-1.5732422.0351562c-.6270752,0-1.1705322-.0175781-1.6303711-.0527344-.460083-.0351562-.7866211-.0869141-.9799805-.1533203-.1933594-.0683594-.3911133-.1914062-.5932617-.3691406-.2021484-.1796875-.3619385-.40625-.4790039-.6816406-.1173096-.2753906-.1757812-.5976562-.1757812-.9667969v-.0351562c0-.5449219.2636719-1.1835938.7910156-1.9160156s2.1414795-2.5341797,4.8427734-5.4052734Z"/>
      <path class="cls-1" d="m265.3054199,82.1464844l-1.1953125-.2724609c.3457031-1.1542969.5302734-2.6425781.5537109-4.4648438l1.1953125.0351562c-.0234375,2.0332031-.2080078,3.6005859-.5537109,4.7021484Zm4.0166016,4.8251953c-.4980469-.5859375-1.0107422-1.2744141-1.5380859-2.0654297-.5097656,2.0332031-1.3857422,3.75-2.6279297,5.1503906l-.8261719-.6767578c1.7519531-2.2558594,2.6279297-5.0419922,2.6279297-8.3583984v-6.9345703h1.3007812v4.2275391c.8613281-.8964844,1.3828125-1.4677734,1.5644531-1.7138672l.7910156.7382812c-.6972656.7324219-1.4824219,1.4941406-2.3554688,2.2851562v1.1601562c0,.9492188-.0644531,1.8515625-.1933594,2.7070312.65625.9082031,1.3388672,1.7460938,2.0478516,2.5136719l-.7910156.9667969Zm.1142578,2.6630859l-.5185547-.8964844c1.3652344-.5917969,2.5195312-1.2304688,3.4628906-1.9160156s1.6171875-1.2539062,2.0214844-1.7050781h-4.4121094v-1.0634766h4.7373047v-1.265625h1.3710938v1.265625h4.9570312v1.0634766h-4.6230469c.5742188.6035156,1.4106445,1.2558594,2.5092773,1.9550781,1.0986328.7011719,2.0551758,1.1943359,2.8696289,1.4814453l-.6767578,1.0810547c-1.9335938-.8144531-3.6181641-1.9365234-5.0537109-3.3662109v3.8496094h-1.3359375v-3.7265625c-1.6230469,1.3710938-3.3925781,2.4521484-5.3085938,3.2431641Zm.7558594-7.1191406v-3.3486328h4.4560547v3.3486328h-4.4560547Zm3.2871094-2.5400391h-2.1181641v1.7314453h2.1181641v-1.7314453Zm-1.7490234-2.0126953v-3.3486328h7.5058594v3.3837891l-7.5058594-.0351562Zm6.2578125-2.4609375h-4.9921875v1.6347656h4.9921875v-1.6347656Zm-1.7578125,7.0136719v-3.3486328h4.4648438v3.3486328h-4.4648438Zm3.2695312-2.5400391h-2.1357422v1.7314453h2.1357422v-1.7314453Z"/>
      <path class="cls-1" d="m285.0445557,84.4052734v-3.2167969h-2.109375v-1.0458984h2.109375v-2.5488281c-.6622314.6796875-1.2862549,1.2128906-1.8720703,1.5996094l-.7558594-.7910156c.7207031-.4980469,1.4530029-1.1982422,2.1972656-2.1005859.7440186-.9023438,1.2596436-1.6582031,1.546875-2.2675781l1.3798828.2373047c-.2052002.421875-.5919189,1.0078125-1.1601562,1.7578125h12.4716797v1.0458984h-1.6699219v3.0673828h2.2763672v1.0458984h-2.2763672v3.2167969h1.8369141v1.0810547h-15.7587891v-1.0810547h1.7841797Zm-1.0283203,5.765625l-1.265625-.5361328c.3221436-.3574219.6956787-.8945312,1.1206055-1.6132812.4246826-.7167969.7426758-1.3310547.9536133-1.8408203l1.3359375.3164062c-.1933594.5039062-.5361328,1.1777344-1.0283203,2.0214844s-.8643799,1.3945312-1.1162109,1.6523438Zm2.3642578-13.0957031v3.0673828h2.2412109v-3.0673828h-2.2412109Zm0,4.1132812v3.2167969h2.2412109v-3.2167969h-2.2412109Zm2.1005859,8.7626953l-.8701172-3.4365234,1.3623047-.2373047c.3221436.9609375.6416016,2.1181641.9580078,3.4716797l-1.4501953.2021484Zm1.4677734-12.8759766v3.0673828h2.2412109v-3.0673828h-2.2412109Zm0,7.3300781h2.2412109v-3.2167969h-2.2412109v3.2167969Zm3.0234375,5.4492188c-.2052002-.6386719-.6152344-1.7695312-1.2304688-3.3925781l1.3271484-.2988281c.6328125,1.4472656,1.0838623,2.5751953,1.3535156,3.3837891l-1.4501953.3076172Zm.5185547-9.7119141h2.3291016v-3.0673828h-2.3291016v3.0673828Zm0,4.2626953h2.3291016v-3.2167969h-2.3291016v3.2167969Zm4.5703125,5.4667969c-.6270752-1.2304688-1.3419189-2.3935547-2.1445312-3.4892578l1.3183594-.4570312c.5273438.7207031,1.2801514,1.8955078,2.2587891,3.5244141l-1.4326172.421875Z"/>
      <path class="cls-1" d="m300.6132812,87.15625l-.2548828-1.2128906c.8494873-.1757812,1.6025391-.3457031,2.2587891-.5097656v-6.2226562h-1.8544922v-1.0722656h1.8544922v-3.9023438h1.3359375v3.9023438h1.7050781v1.0722656h-1.7050781v5.8710938c.8027344-.2167969,1.4031982-.3925781,1.8017578-.5273438l.0703125,1.0634766c-.4161377.1816406-.8452148.3398438-1.2875977.4746094-.4425049.1347656-1.7504883.4892578-3.9243164,1.0634766Zm7.5410156-10.5732422v2.4082031h9.4921875v1.0634766h-9.4921875v1.1689453c0,.8027344-.0219727,1.5146484-.065918,2.1357422s-.1612549,1.3476562-.3515625,2.1796875c-.1904297.8320312-.4541016,1.6210938-.7910156,2.3691406-.3370361.7460938-.7397461,1.4335938-1.2084961,2.0605469l-.9755859-.6591797c.6796875-.9375,1.1922607-2.0087891,1.5380859-3.2119141.3457031-1.2050781.5185547-2.6796875.5185547-4.4257812v-6.0820312c4.2420654-.2636719,7.3212891-.6621094,9.2373047-1.1953125l.5888672,1.0458984c-2.34375.5449219-5.1738281.9257812-8.4902344,1.1425781Zm7.2773438,12.4101562h-4.8339844v.8964844h-1.3183594v-7.2333984h7.4882812v7.2333984h-1.3359375v-.8964844Zm-4.8339844-1.0283203h4.8339844v-4.2363281h-4.8339844v4.2363281Z"/>
      <path class="cls-1" d="m321.348877,82.1552734c-.6738281,1.5703125-1.3974609,2.8886719-2.1708984,3.9550781l-.8613281-.7119141c.5976562-.8144531,1.2041016-1.9335938,1.8193359-3.3574219.6033936-1.3769531,1.0019531-2.5458984,1.1953125-3.5068359h-2.3730469v-1.0458984h2.390625v-3.3837891h1.3359375v3.3837891h1.265625v1.0458984h-1.265625v1.9248047c.5682373.6738281,1.2070312,1.2919922,1.9160156,1.8544922l-.6679688,1.0283203c-.4570312-.4335938-.8731689-.8818359-1.2480469-1.3447266v8.1210938h-1.3359375v-7.9628906Zm5.90625-4.2099609v-.6152344c-.8261719.5976562-1.6435547,1.078125-2.4521484,1.4414062l-.5537109-.9052734c1.2186279-.5859375,2.2529297-1.2568359,3.1025391-2.0126953.7734375-.6855469,1.3359375-1.2919922,1.6875-1.8193359h1.6875c.3164062.4804688.9285889,1.0605469,1.8369141,1.7402344,1.0195312.7675781,2.1766357,1.3916016,3.4716797,1.8720703l-.7558594.9580078c-.9375-.375-1.8193359-.8320312-2.6455078-1.3710938v.7119141h-5.3789062Zm-2.1972656,5.1416016v-4.078125h9.6943359v4.078125h-9.6943359Zm8.0244141,6.3896484h-6.3720703v.4746094h-1.3095703v-5.765625h8.9648438v5.765625h-1.2832031v-.4746094Zm-3.65625-7.1103516v-2.6015625h-3.3046875v2.6015625h3.3046875Zm3.65625,3.9902344v-1.3095703h-6.3720703v1.3095703h6.3720703Zm-6.3720703,2.1972656h6.3720703v-1.3359375h-6.3720703v1.3359375Zm1.0634766-6.5126953l-.6240234-1.6347656.7734375-.2373047.6591797,1.6083984-.8085938.2636719Zm-.1845703-4.9570312h4.8251953c-1.0019531-.6855469-1.828125-1.4267578-2.4785156-2.2236328-.6622314.7910156-1.444458,1.5322266-2.3466797,2.2236328Zm2.8300781,2.6806641v2.6015625h3.2431641v-2.6015625h-3.2431641Zm1.5908203,2.2587891l-.7294922-.1669922.5888672-1.7138672.8085938.1845703-.6679688,1.6962891Z"/>
      <path class="cls-1" d="m345.2164307,89.3974609l-.3427734-1.1865234c1.8865967-.1699219,3.4993896-.7177734,4.8383789-1.6435547,1.3388672-.9257812,2.0083008-2.3085938,2.0083008-4.1484375,0-1.640625-.5405273-2.9091797-1.621582-3.8056641s-2.5883789-1.3710938-4.5219727-1.4238281c-.0645752,3.1523438-.6298828,5.7832031-1.6962891,7.8925781-1.0665283,2.109375-2.4024658,3.1640625-4.0078125,3.1640625-.9962158,0-1.7797852-.4228516-2.3510742-1.2695312s-.8569336-1.8798828-.8569336-3.0986328c0-2.0097656.8670654-3.8154297,2.6015625-5.4189453,1.734375-1.6015625,3.7880859-2.4033203,6.1611328-2.4033203,2.2324219,0,4.0722656.5576172,5.5195312,1.6748047,1.4471436,1.1152344,2.1708984,2.640625,2.1708984,4.5742188,0,2.203125-.7294922,3.8876953-2.1884766,5.0537109s-3.3632812,1.8457031-5.7128906,2.0390625Zm-1.0195312-12.09375c-1.6993408.2578125-3.1611328,1.0273438-4.3857422,2.3076172-1.2247314,1.2802734-1.8369141,2.7255859-1.8369141,4.3369141,0,.8554688.1787109,1.5810547.5361328,2.1748047.3572998.5957031.8554688.8925781,1.4941406.8925781,1.0955811,0,2.0507812-1.0234375,2.8652344-3.0722656.8143311-2.046875,1.2568359-4.2607422,1.3271484-6.6396484Z"/>
      <path class="cls-1" d="m356.2729492,79.5712891l-.2197266,2.9267578h3.8671875c0,1.7109375-.0498047,3.1328125-.1494141,4.2675781-.0997314,1.1328125-.2271729,1.8847656-.3823242,2.2539062-.1552734.3691406-.4746094.6474609-.9580078.8349609s-1.4312744.2607422-2.8432617.2197266l-.2021484-1.2128906h1.5996094c.3691406,0,.6635742-.0742188.8833008-.2246094.2197266-.1484375.3603516-.3554688.421875-.6191406s.1230469-.8330078.1845703-1.7089844.0922852-1.8359375.0922852-2.8789062h-2.5927734l-.0527344.8789062h-1.2480469l.3867188-5.6513672h3.5595703v-2.9882812h-3.9111328v-.9404297h5.2294922v4.8427734h-3.6650391Zm4.2539062,10.4853516l-.2373047-1.0986328c1.1483154-.0761719,2.6776123-.2167969,4.5878906-.421875v-3.375h-2.2412109v.5273438h-1.2832031v-5.0888672h3.5244141v-1.7753906l-3.9814453.2548828-.1318359-1.0986328c.328125-.0058594.75-.0205078,1.265625-.0439453.9022217-1.5410156,1.5585938-2.8476562,1.96875-3.9199219l1.3798828.3076172c-.7265625,1.4707031-1.3798828,2.6513672-1.9599609,3.5419922,1.8632812-.1054688,3.5213623-.2285156,4.9746094-.3691406-.4864502-.7148438-.9228516-1.2832031-1.3095703-1.7050781l1.0986328-.5537109c1.0371094,1.171875,1.9189453,2.4082031,2.6455078,3.7089844l-1.2128906.5712891c-.1700439-.3339844-.3691406-.6855469-.5976562-1.0546875-.6386719.0820312-1.5644531.1699219-2.7773438.2636719v1.8720703h3.6298828v4.5615234h-3.6298828v3.2255859c.8730469-.0996094,1.6523438-.2050781,2.3378906-.3164062-.2403564-.4746094-.5683594-1.078125-.984375-1.8105469l1.1777344-.4746094c.9609375,1.6289062,1.6523438,2.9443359,2.0742188,3.9462891l-1.3007812.4394531c-.1289062-.3398438-.2988281-.7294922-.5097656-1.1689453-1.2774658.234375-2.5255127.4160156-3.7441406.5449219l-4.7636719.5097656Zm4.3505859-8.5166016h-2.2412109v2.6806641h2.2412109v-2.6806641Zm3.65625,0h-2.2939453v2.6806641h2.2939453v-2.6806641Z"/>
      <path class="cls-1" d="m388.7819824,83.21875l-.4306641,1.3007812c-.7852783-.3046875-1.5147705-.5742188-2.1884766-.8085938-.2988281,1.4179688-.7880859,2.6132812-1.4677734,3.5859375-.6798096.9726562-1.6202393,1.828125-2.8212891,2.5664062l-.8085938-.9140625c2.0859375-1.4121094,3.3515625-3.3046875,3.796875-5.6777344-1.8515625-.5800781-3.5771484-.9580078-5.1767578-1.1337891-1.640625,4.3828125-3.46875,6.5742188-5.484375,6.5742188-.6446533,0-1.1807861-.2412109-1.6083984-.7255859-.4277344-.4824219-.6416016-1.0673828-.6416016-1.7529297,0-.75.215332-1.5341797.6459961-2.3505859.4306641-.8183594,1.1147461-1.5263672,2.0522461-2.1269531.9373779-.6005859,2.0008545-.9042969,3.1904297-.9101562.2694092,0,.5478516.0058594.8349609.0175781.4394531-1.3476562.7324219-2.6865234.8789062-4.0166016h-5.5810547v-1.1162109h6.890625l.2724609.2900391c-.2227783,1.8164062-.5712891,3.4716797-1.0458984,4.9658203,1.5410156.1816406,3.1904297.5332031,4.9482422,1.0546875.0351562-.4277344.0527344-1.4794922.0527344-3.1552734h1.3710938l.0087891,1.5292969c0,.8144531-.0322266,1.4941406-.0966797,2.0390625.5390625.1640625,1.3416748.4189453,2.4082031.7646484Zm-10.5029297-1.1865234c-.2695312-.0117188-.4864502-.0175781-.6503906-.0175781-.9140625,0-1.715332.2480469-2.4038086.7431641-.6885986.4951172-1.1923828,1.0878906-1.5117188,1.7792969-.319458.6914062-.4790039,1.2685547-.4790039,1.7314453,0,.3222656.1083984.6005859.3251953.8349609.2166748.234375.4803467.3515625.7910156.3515625.6152344,0,1.3125-.5722656,2.0917969-1.71875.7791748-1.1445312,1.3916016-2.3798828,1.8369141-3.7041016Z"/>
      <path class="cls-1" d="m403.9976807,74.5527344l-14.8623047,15.4423828h-1.5732422l14.8183594-15.4423828h1.6171875Z"/>
    </g>
    <g>
      <path class="cls-1" d="m66.4030762,11.7685547c-.9897461-1.484375-2.8596191-3.1347656-5.8841553-3.1347656-1.9797363,0-3.1895752.6054688-3.9044189,1.2646484-.8798828.7705078-1.4299316,1.8154297-1.4299316,3.0800781,0,1.2099609.4949951,2.0898438,1.5397949,2.8046875.7149658.4951172,1.6499023.8798828,3.4645996,1.6494141l2.4746094,1.0449219c1.4299316.6054688,3.1346436,1.5400391,4.5644531,3.0800781,1.6497803,1.7597656,2.2546387,3.4638672,2.2546387,5.8837891,0,4.0146484-1.5397949,7.7539062-3.9044189,10.0087891-3.0245361,2.9150391-6.9840088,3.4648438-10.008667,3.4648438-2.8046875,0-5.1693115-.5498047-7.5339355-2.0898438-1.869873-1.2099609-3.5195312-3.0800781-4.6744385-4.8398438l5.2242432-4.4541016c.5500488,1.0449219,1.5948486,2.5292969,2.5847168,3.3544922,1.4298096,1.2099609,2.9696045,1.5400391,4.6193848,1.5400391,1.4298096,0,3.3544922-.2197266,4.7844238-1.8144531.7697754-.8251953,1.3747559-2.0351562,1.3747559-3.7949219,0-1.3203125-.4399414-2.3652344-1.6497803-3.3544922-1.2098389-.9902344-2.3096924-1.2099609-3.739502-1.8144531l-2.0897217-.8798828c-2.3096924-.9902344-3.6295166-1.8701172-4.4543457-2.6953125-1.9248047-1.8691406-2.2547607-4.1240234-2.2547607-6.0488281,0-2.859375.8248291-5.609375,3.1346436-7.9189453,2.9694824-2.9697266,6.7089844-3.5195312,9.9536133-3.5195312,2.3647461,0,6.434082.3847656,9.8986816,4.2890625l-4.3444824,4.8945312Z"/>
      <path class="cls-1" d="m78.4501953,52.6835938h-6.7089844l4.4543457-36.4052734h6.7091064l-.3848877,3.0791016c1.0447998-1.2646484,2.199707-2.1445312,3.5195312-2.8046875,1.5397949-.7695312,2.7495117-1.0449219,4.3994141-1.0449219,2.4196777,0,5.2242432.4951172,7.4790039,2.6396484,2.5845947,2.4746094,3.1345215,5.7744141,3.1345215,8.4140625,0,5.5546875-2.1447754,8.9638672-4.069458,10.8886719-2.6396484,2.6396484-5.6092529,3.4091797-8.6339111,3.4091797-.9897461,0-3.5744629-.109375-5.5541992-1.3740234-.9898682-.6054688-1.8146973-1.5400391-2.4196777-2.4755859l-1.9248047,15.6738281Zm4.5644531-29.2568359c-1.5397949,1.4853516-2.2546387,3.4648438-2.2546387,5.3349609,0,1.7597656.6048584,3.2988281,1.4847412,4.2890625,1.3748779,1.5947266,3.2445068,1.8701172,4.7293701,1.8701172,1.9248047,0,3.5195312-.5498047,4.8942871-1.9248047,1.4299316-1.4296875,2.199707-3.5751953,2.199707-5.6640625,0-1.9248047-.7697754-3.4101562-1.7597656-4.3447266-.9897461-.9345703-2.6945801-1.5400391-4.2893066-1.5400391-1.7597656,0-3.5195312.4951172-5.0043945,1.9794922Z"/>
      <path class="cls-1" d="m128.9372559,33.7109375c-1.2098389,2.4746094-3.1345215,4.4541016-5.0593262,5.5537109-2.3647461,1.3203125-5.0043945,1.5947266-7.1490479,1.5947266-3.1895752,0-6.3240967-.6044922-8.8538818-3.2988281-1.3198242-1.375-2.8596191-3.7949219-2.8596191-7.6992188,0-4.125,1.4848633-8.2490234,4.1245117-10.8339844,3.0246582-3.0244141,6.5991211-3.5195312,9.5136719-3.5195312,2.8596191,0,5.8293457.5498047,8.138916,2.75,2.5847168,2.4746094,3.0795898,5.71875,3.0795898,8.6337891,0,.9902344,0,1.7050781-.1098633,2.4199219h-17.817627c-.2750244,2.1992188.3848877,3.7939453,1.3747559,4.7841797,1.2098389,1.2646484,2.6945801,1.484375,3.904541,1.484375.8248291,0,2.364624-.0546875,3.6293945-.7695312.9899902-.6044922,1.8148193-1.5947266,2.3098145-2.4746094l5.7741699,1.375Zm-4.9493408-8.6894531c-.0550537-1.3740234-.6599121-2.6943359-1.4847412-3.4638672-.9349365-.8798828-2.3647461-1.3203125-3.739502-1.3203125-1.8148193,0-3.1346436.7148438-4.0695801,1.5400391-.8248291.7695312-1.5947266,1.9248047-1.9797363,3.2441406h11.2735596Z"/>
      <path class="cls-1" d="m153.7419434,23.5371094c-.9897461-.9345703-2.7495117-2.0898438-5.6641846-2.0898438-1.5397949,0-3.4095459.3300781-4.9493408,1.8701172-1.4848633,1.4296875-2.199707,3.6289062-2.199707,5.4443359,0,1.7041016.6049805,3.2988281,1.6497803,4.34375,1.0447998,1.1005859,2.6947021,1.8154297,4.5093994,1.8154297,1.4298096,0,3.6845703-.4404297,5.4992676-2.0898438l-.7698975,6.5439453c-2.199707,1.2646484-4.6744385,1.484375-6.269165,1.484375-3.4095459,0-6.5991211-1.2089844-8.6888428-3.3544922-1.7047119-1.7597656-2.9696045-4.34375-2.9696045-8.0283203,0-4.1796875,1.4848633-7.5888672,3.8494873-10.0087891,2.8596191-2.9150391,6.2142334-3.9599609,10.2286377-3.9599609,2.0897217,0,4.1794434.2753906,6.5991211,1.4296875l-.8249512,6.5996094Z"/>
      <path class="cls-1" d="m166.3933105,16.2783203l-2.9145508,23.8115234h-6.7092285l2.9146729-23.8115234h6.7091064Zm-4.8393555-12.7041016c1.0998535-1.1542969,2.3096924-1.3740234,3.1895752-1.3740234,1.0447998,0,1.9246826.3847656,2.5296631.9892578.6599121.6601562,1.0449219,1.5947266,1.0449219,2.5849609,0,.8251953-.2750244,2.0351562-1.3198242,3.0791016-.9899902.9902344-2.1447754,1.375-3.1896973,1.375-1.0447998,0-1.8696289-.3847656-2.529541-.9892578-.6599121-.6601562-1.0449219-1.4296875-1.0449219-2.5302734,0-1.0449219.3850098-2.1992188,1.3198242-3.1347656Z"/>
      <path class="cls-1" d="m191.1413574,16.2783203h6.7089844l-2.9145508,23.8115234h-6.7091064l.3848877-3.0800781c-1.2097168,1.5957031-2.5845947,2.4199219-3.0245361,2.6953125-1.4298096.8242188-2.8045654,1.1542969-4.4544678,1.1542969-2.8596191,0-5.5541992-.7695312-7.8088379-3.0244141-2.3098145-2.3095703-3.1896973-5.2236328-3.1896973-8.4140625,0-4.2890625,1.4299316-7.8085938,3.6845703-10.1728516,1.9248047-1.9804688,5.0043945-3.7402344,9.4038086-3.7402344,1.7047119,0,3.1894531.3300781,4.729248,1.1552734,1.3198242.7148438,2.1447754,1.5947266,2.8046875,2.6943359l.3850098-3.0791016Zm-11.6584473,6.8740234c-1.5397949,1.4296875-2.3647461,3.5195312-2.3647461,5.4990234,0,2.0898438.7698975,3.7392578,1.8146973,4.7294922.9899902.9345703,2.4196777,1.5400391,4.3994141,1.5400391,1.3198242,0,3.1346436-.2753906,4.7294922-1.7050781,1.5947266-1.4296875,2.364624-3.6845703,2.364624-5.7197266,0-1.7041016-.6599121-3.1894531-1.6497803-4.234375-.7698975-.8242188-2.199707-1.8144531-4.6193848-1.8144531-1.704834,0-3.2995605.4951172-4.6743164,1.7050781Z"/>
      <path class="cls-1" d="m212.9770508,0l-4.9493408,40.0898438h-6.7091064L206.2679443,0h6.7091064Z"/>
      <path class="cls-1" d="m237.6160889,3.4101562h5.1693115l6.8190918,23.3164062,13.0882568-23.3164062h5.1693115l1.5947266,36.6796875h-7.1489258l-.5500488-22.6015625-12.7583008,22.6015625h-2.199707l-6.7089844-22.6015625-6.4892578,22.6015625h-7.3688965l11.3834229-36.6796875Z"/>
      <path class="cls-1" d="m299.6539307,18.9179688c1.5397949,1.5947266,3.0795898,4.1787109,3.0795898,7.9189453,0,3.0244141-.9349365,6.8183594-4.2344971,10.0087891-3.1345215,2.96875-6.7089844,4.0136719-10.9434814,4.0136719-3.4095459,0-6.5991211-.7148438-9.1837158-3.2988281-1.7597656-1.7050781-3.1346436-4.3447266-3.1346436-8.0839844,0-3.9042969,1.7047119-7.5888672,4.1243896-9.9541016,1.9248047-1.8701172,5.3343506-4.0146484,10.8886719-4.0146484,4.6743164,0,7.5888672,1.5947266,9.4036865,3.4101562Zm-6.2142334,13.9130859c1.3748779-1.375,2.2547607-3.4648438,2.2547607-5.3349609,0-1.484375-.6048584-3.2988281-1.7597656-4.3994141-1.0998535-1.0439453-2.7496338-1.6494141-4.3443604-1.6494141-1.869873,0-3.739502.7148438-5.0593262,1.9248047-1.6499023,1.5400391-2.3647461,3.7949219-2.3647461,5.6640625,0,1.4296875.6049805,3.1347656,1.6497803,4.1796875,1.0998535,1.0996094,2.8596191,1.7050781,4.3994141,1.7050781,1.8148193,0,3.7945557-.6601562,5.2242432-2.0898438Z"/>
      <path class="cls-1" d="m312.361084,16.2783203l4.6193848,13.4179688,7.9189453-13.4179688h7.6989746l-15.0681152,23.8115234h-3.1894531l-9.2387695-23.8115234h7.2590332Z"/>
      <path class="cls-1" d="m342.6105957,16.2783203l-2.9146729,23.8115234h-6.7091064l2.9145508-23.8115234h6.7092285Zm-4.8393555-12.7041016c1.0998535-1.1542969,2.3095703-1.3740234,3.1894531-1.3740234,1.0449219,0,1.9248047.3847656,2.5297852.9892578.6599121.6601562,1.0447998,1.5947266,1.0447998,2.5849609,0,.8251953-.2750244,2.0351562-1.3198242,3.0791016-.9898682.9902344-2.1446533,1.375-3.1895752,1.375s-1.869751-.3847656-2.5296631-.9892578c-.6599121-.6601562-1.0447998-1.4296875-1.0447998-2.5302734,0-1.0449219.3848877-2.1992188,1.3198242-3.1347656Z"/>
      <path class="cls-1" d="m370.2731934,33.7109375c-1.2099609,2.4746094-3.1346436,4.4541016-5.0593262,5.5537109-2.3647461,1.3203125-5.0043945,1.5947266-7.1491699,1.5947266-3.1894531,0-6.3240967-.6044922-8.8537598-3.2988281-1.3198242-1.375-2.8596191-3.7949219-2.8596191-7.6992188,0-4.125,1.4848633-8.2490234,4.1245117-10.8339844,3.0245361-3.0244141,6.5991211-3.5195312,9.5136719-3.5195312,2.8596191,0,5.8292236.5498047,8.138916,2.75,2.5847168,2.4746094,3.0795898,5.71875,3.0795898,8.6337891,0,.9902344,0,1.7050781-.1099854,2.4199219h-17.817627c-.2750244,2.1992188.3848877,3.7939453,1.3748779,4.7841797,1.2097168,1.2646484,2.6945801,1.484375,3.9044189,1.484375.8248291,0,2.364624-.0546875,3.6295166-.7695312.9898682-.6044922,1.8146973-1.5947266,2.3096924-2.4746094l5.774292,1.375Zm-4.9494629-8.6894531c-.0549316-1.3740234-.6599121-2.6943359-1.4847412-3.4638672-.9349365-.8798828-2.364624-1.3203125-3.739502-1.3203125-1.8148193,0-3.1346436.7148438-4.069458,1.5400391-.8249512.7695312-1.5947266,1.9248047-1.9797363,3.2441406h11.2734375Z"/>
    </g>
  </g>
</svg>